<svg width="52" height="51" viewBox="0 0 52 51" fill="none" xmlns="http://www.w3.org/2000/svg">
<path d="M26.3531 44.4673C26.6118 44.3615 26.8471 44.2057 27.0455 44.0088L43.5426 27.4763C45.612 25.3835 46.7727 22.5581 46.7727 19.6138C46.7727 16.6694 45.612 13.844 43.5426 11.7513C41.4571 9.66984 38.6321 8.50101 35.6868 8.50101C32.7416 8.50101 29.9166 9.66984 27.8311 11.7513L26.9516 12.6314L26.9528 12.6326L26.3531 44.4673ZM26.3531 44.4673C26.0944 44.573 25.8174 44.6266 25.538 44.625M26.3531 44.4673L25.538 44.625M25.538 44.625C25.2586 44.6266 24.9816 44.573 24.7229 44.4673C24.4642 44.3615 24.229 44.2057 24.0306 44.0088L25.538 44.625ZM25.4797 42.616L25.4797 42.616C25.4654 42.6101 25.4522 42.6016 25.4409 42.5907C25.4405 42.5903 25.44 42.5898 25.4396 42.5894L8.95557 26.07C8.95456 26.069 8.95355 26.068 8.95255 26.067C7.25549 24.3491 6.30334 22.0304 6.30334 19.6138C6.30334 17.1979 7.2549 14.8799 8.95095 13.1622C10.6612 11.4577 12.9762 10.501 15.3892 10.501C17.8041 10.501 20.1208 11.4592 21.8314 13.1661C21.8317 13.1664 21.8319 13.1666 21.8322 13.1669L24.1232 15.4599L25.538 16.8759L26.9528 15.4599L29.2439 13.1669C29.2442 13.1666 29.2445 13.1663 29.2448 13.166C30.9554 11.4592 33.2721 10.501 35.6868 10.501C38.0999 10.501 40.4149 11.4578 42.1252 13.1623C43.8212 14.8799 44.7727 17.1979 44.7727 19.6138C44.7727 22.0304 43.8205 24.3492 42.1234 26.0671C42.1224 26.068 42.1215 26.069 42.1205 26.07L25.6364 42.5894C25.636 42.5898 25.6355 42.5903 25.6351 42.5907C25.6238 42.6016 25.6106 42.6101 25.5963 42.616L25.5963 42.616C25.5814 42.6221 25.5656 42.6251 25.5496 42.625L25.538 42.625L25.5264 42.625C25.5105 42.6251 25.4946 42.6221 25.4797 42.616Z" fill="white" stroke="#CCCCCC" stroke-width="4"/>
</svg>
